<svg xmlns="http://www.w3.org/2000/svg" viewBox="0 0 1200 760" role="img" aria-labelledby="title desc">
  <title id="title">Hands offering a heart</title>
  <desc id="desc">A warm healthcare illustration of supportive hands holding a heart.</desc>
  <defs>
    <linearGradient id="bg" x1="0" y1="0" x2="1" y2="1">
      <stop offset="0" stop-color="#fffdf8"/>
      <stop offset="0.52" stop-color="#f3eadb"/>
      <stop offset="1" stop-color="#e6d2ae"/>
    </linearGradient>
    <linearGradient id="gold" x1="0" y1="0" x2="1" y2="1">
      <stop offset="0" stop-color="#d8b96f"/>
      <stop offset="1" stop-color="#8c6727"/>
    </linearGradient>
    <linearGradient id="skin" x1="0" y1="0" x2="1" y2="1">
      <stop offset="0" stop-color="#fff4e8"/>
      <stop offset="0.52" stop-color="#e8c9aa"/>
      <stop offset="1" stop-color="#c89268"/>
    </linearGradient>
    <filter id="softShadow" x="-20%" y="-20%" width="140%" height="140%">
      <feDropShadow dx="0" dy="26" stdDeviation="22" flood-color="#20201e" flood-opacity="0.16"/>
    </filter>
  </defs>
  <rect width="1200" height="760" fill="url(#bg)"/>
  <path d="M74 603C225 452 338 468 490 574C654 689 822 672 1116 455" fill="none" stroke="#d8b96f" stroke-width="8" opacity=".28"/>
  <path d="M100 170C269 82 470 80 610 189C724 277 839 301 1088 184" fill="none" stroke="#8c6727" stroke-width="4" opacity=".18"/>
  <circle cx="604" cy="368" r="264" fill="none" stroke="#b78935" stroke-width="3" opacity=".22"/>
  <circle cx="604" cy="368" r="194" fill="none" stroke="#b78935" stroke-width="2" opacity=".24"/>
  <g opacity=".16">
    <path d="M0 95h1200M0 215h1200M0 335h1200M0 455h1200M0 575h1200M120 0v760M240 0v760M360 0v760M480 0v760M600 0v760M720 0v760M840 0v760M960 0v760M1080 0v760" stroke="#b78935" stroke-width="1"/>
  </g>
  <g filter="url(#softShadow)">
    <path d="M324 487c58-23 131-34 205-5c38 15 74 29 117 18c30-8 57 10 60 34c3 26-23 45-53 51c-98 20-181-11-248-29c-42-11-82-9-121 8l-120 52l-46-106l206-23z" fill="url(#skin)"/>
    <path d="M877 487c-58-23-131-34-205-5c-38 15-74 29-117 18c-30-8-57 10-60 34c-3 26 23 45 53 51c98 20 181-11 248-29c42-11 82-9 121 8l120 52l46-106l-206-23z" fill="url(#skin)"/>
    <path d="M164 603l177-77c25-11 49-13 78-7" fill="none" stroke="#9f6f45" stroke-width="8" stroke-linecap="round" opacity=".28"/>
    <path d="M1037 603l-177-77c-25-11-49-13-78-7" fill="none" stroke="#9f6f45" stroke-width="8" stroke-linecap="round" opacity=".28"/>
  </g>
  <g filter="url(#softShadow)">
    <path d="M600 426c-92-58-157-118-157-196c0-58 43-101 97-101c31 0 55 13 73 37c18-24 42-37 73-37c54 0 97 43 97 101c0 78-65 138-157 196l-13 8l-13-8z" fill="#fffaf0"/>
    <path d="M600 397c-73-47-122-93-122-152c0-38 27-66 62-66c29 0 48 18 60 45c12-27 31-45 60-45c35 0 62 28 62 66c0 59-49 105-122 152z" fill="url(#gold)"/>
    <path d="M508 258h56l25-54l44 126l28-72h44" fill="none" stroke="#fffaf0" stroke-width="14" stroke-linecap="round" stroke-linejoin="round" opacity=".9"/>
  </g>
  <path d="M244 242c40-34 92-56 148-62" fill="none" stroke="#b78935" stroke-width="5" stroke-linecap="round" opacity=".45"/>
  <path d="M956 242c-40-34-92-56-148-62" fill="none" stroke="#b78935" stroke-width="5" stroke-linecap="round" opacity=".45"/>
</svg>
